# Blender 4.2.3 LTS
# www.blender.org
mtllib david.mtl
o Body
v -2.000000 0.000000 4.000000
v -2.000000 12.000000 4.000000
v -2.000000 0.000000 -4.000000
v -2.000000 12.000000 -4.000000
v 2.000000 0.000000 4.000000
v 2.000000 12.000000 4.000000
v 2.000000 0.000000 -4.000000
v 2.000000 12.000000 -4.000000
vn -1.0000 -0.0000 -0.0000
vn -0.0000 -0.0000 -1.0000
vn 1.0000 -0.0000 -0.0000
vn -0.0000 -0.0000 1.0000
vn -0.0000 -1.0000 -0.0000
vn -0.0000 1.0000 -0.0000
vt 0.625441 0.499335
vt 0.625583 0.687018
vt 0.500461 0.687112
vt 0.500319 0.499429
vt 0.437900 0.687160
vt 0.437758 0.499477
vt 0.312778 0.687254
vt 0.312636 0.499571
vt 0.250217 0.687301
vt 0.250075 0.499618
vt 0.437592 0.750305
vt 0.437545 0.687744
vt 0.562667 0.687649
vt 0.562715 0.750210
vt 0.437947 0.749721
vt 0.312825 0.749815
s 0
usemtl Skin
f 1/1/1 2/2/1 4/3/1 3/4/1
f 3/4/2 4/3/2 8/5/2 7/6/2
f 7/6/3 8/5/3 6/7/3 5/8/3
f 5/8/4 6/7/4 2/9/4 1/10/4
f 3/11/5 7/12/5 5/13/5 1/14/5
f 8/5/6 4/15/6 2/16/6 6/7/6
o Head
v -4.000000 12.000000 4.000000
v -4.000000 20.000000 4.000000
v -4.000000 12.000000 -4.000000
v -4.000000 20.000000 -4.000000
v 4.000000 12.000000 4.000000
v 4.000000 20.000000 4.000000
v 4.000000 12.000000 -4.000000
v 4.000000 20.000000 -4.000000
vn -1.0000 -0.0000 -0.0000
vn -0.0000 -0.0000 -1.0000
vn 1.0000 -0.0000 -0.0000
vn -0.0000 -0.0000 1.0000
vn -0.0000 -1.0000 -0.0000
vn -0.0000 1.0000 -0.0000
vt 0.372665 0.748600
vt 0.497335 0.748600
vt 0.497335 0.873269
vt 0.372664 0.873269
vt 0.372120 0.875765
vt 0.248290 0.875765
vt 0.248290 0.751936
vt 0.372120 0.751936
vt 0.246246 0.751337
vt 0.246246 0.874649
vt 0.122934 0.874649
vt 0.122934 0.751337
vt 0.121606 0.751315
vt 0.121606 0.872442
vt 0.000480 0.872442
vt 0.000480 0.751315
vt 0.244620 1.001481
vt 0.244620 0.874457
vt 0.371645 0.874457
vt 0.371645 1.001481
vt 0.246966 0.999382
vt 0.124167 0.999382
vt 0.124167 0.876583
vt 0.246966 0.876583
s 0
usemtl Skin.001
f 9/17/7 10/18/7 12/19/7 11/20/7
f 11/21/8 12/22/8 16/23/8 15/24/8
f 15/25/9 16/26/9 14/27/9 13/28/9
f 13/29/10 14/30/10 10/31/10 9/32/10
f 11/33/11 15/34/11 13/35/11 9/36/11
f 16/37/12 12/38/12 10/39/12 14/40/12
o R_Leg
v -2.000000 -12.000000 4.000000
v -2.000000 0.000000 4.000000
v -2.000000 -12.000000 0.000000
v -2.000000 0.000000 0.000000
v 2.000000 -12.000000 4.000000
v 2.000000 0.000000 4.000000
v 2.000000 -12.000000 0.000000
v 2.000000 0.000000 0.000000
vn -1.0000 -0.0000 -0.0000
vn -0.0000 -0.0000 -1.0000
vn 1.0000 -0.0000 -0.0000
vn -0.0000 -0.0000 1.0000
vn -0.0000 -1.0000 -0.0000
vn -0.0000 1.0000 -0.0000
vt 0.250736 0.499741
vt 0.250736 0.687414
vt 0.188179 0.687414
vt 0.188179 0.499741
vt 0.125621 0.687414
vt 0.125621 0.499741
vt 0.063064 0.687414
vt 0.063064 0.499741
vt 0.000507 0.687414
vt 0.000506 0.499741
vt 0.125914 0.751164
vt 0.125914 0.688607
vt 0.188472 0.688607
vt 0.188472 0.751164
vt 0.125621 0.749971
vt 0.063064 0.749971
s 0
usemtl Skin
f 17/41/13 18/42/13 20/43/13 19/44/13
f 19/44/14 20/43/14 24/45/14 23/46/14
f 23/46/15 24/45/15 22/47/15 21/48/15
f 21/48/16 22/47/16 18/49/16 17/50/16
f 19/51/17 23/52/17 21/53/17 17/54/17
f 24/45/18 20/55/18 18/56/18 22/47/18
o R_Arm
v -2.000000 0.000000 8.000000
v -2.000000 12.000000 8.000000
v -2.000000 0.000000 4.000000
v -2.000000 12.000000 4.000000
v 2.000000 0.000000 8.000000
v 2.000000 12.000000 8.000000
v 2.000000 0.000000 4.000000
v 2.000000 12.000000 4.000000
vn -1.0000 -0.0000 -0.0000
vn -0.0000 -0.0000 -1.0000
vn 1.0000 -0.0000 -0.0000
vn -0.0000 -0.0000 1.0000
vn -0.0000 -1.0000 -0.0000
vn -0.0000 1.0000 -0.0000
vt 0.844329 0.501126
vt 0.843353 0.686753
vt 0.788150 0.686753
vt 0.789127 0.501126
vt 0.732948 0.686753
vt 0.732459 0.501615
vt 0.677745 0.686753
vt 0.677257 0.501615
vt 0.622543 0.686753
vt 0.623519 0.501126
vt 0.781174 0.687333
vt 0.781065 0.749903
vt 0.734195 0.749806
vt 0.734303 0.687333
vt 0.734110 0.687528
vt 0.733917 0.749513
vt 0.687674 0.749428
vt 0.687767 0.687528
s 0
usemtl Skin
f 25/57/19 26/58/19 28/59/19 27/60/19
f 27/60/20 28/59/20 32/61/20 31/62/20
f 31/62/21 32/61/21 30/63/21 29/64/21
f 29/64/22 30/63/22 26/65/22 25/66/22
f 27/67/23 31/68/23 29/69/23 25/70/23
f 32/71/24 28/72/24 26/73/24 30/74/24
o R_Arm.001
v -2.000000 0.000000 8.000000
v -2.000000 12.000000 8.000000
v -2.000000 0.000000 4.000000
v -2.000000 12.000000 4.000000
v 2.000000 0.000000 8.000000
v 2.000000 12.000000 8.000000
v 2.000000 0.000000 4.000000
v 2.000000 12.000000 4.000000
vn -1.0000 -0.0000 -0.0000
vn -0.0000 -0.0000 -1.0000
vn 1.0000 -0.0000 -0.0000
vn -0.0000 -0.0000 1.0000
vn -0.0000 -1.0000 -0.0000
vn -0.0000 1.0000 -0.0000
vt 0.844329 0.501126
vt 0.843353 0.686753
vt 0.788150 0.686753
vt 0.789127 0.501126
vt 0.732948 0.686753
vt 0.732459 0.501615
vt 0.677745 0.686753
vt 0.677257 0.501615
vt 0.622543 0.686753
vt 0.623519 0.501126
vt 0.781174 0.687333
vt 0.781065 0.749903
vt 0.734195 0.749806
vt 0.734303 0.687333
vt 0.734110 0.687528
vt 0.733917 0.749513
vt 0.687674 0.749428
vt 0.687767 0.687528
s 0
usemtl Skin.001
f 33/75/25 34/76/25 36/77/25 35/78/25
f 35/78/26 36/77/26 40/79/26 39/80/26
f 39/80/27 40/79/27 38/81/27 37/82/27
f 37/82/28 38/81/28 34/83/28 33/84/28
f 35/85/29 39/86/29 37/87/29 33/88/29
f 40/89/30 36/90/30 34/91/30 38/92/30
o L_Arm
v -2.000000 0.000000 -4.000000
v -2.000000 12.000000 -4.000000
v -2.000000 0.000000 -8.000000
v -2.000000 12.000000 -8.000000
v 2.000000 0.000000 -4.000000
v 2.000000 12.000000 -4.000000
v 2.000000 0.000000 -8.000000
v 2.000000 12.000000 -8.000000
vn -1.0000 -0.0000 -0.0000
vn -0.0000 -0.0000 -1.0000
vn 1.0000 -0.0000 -0.0000
vn -0.0000 -0.0000 1.0000
vn -0.0000 -1.0000 -0.0000
vn -0.0000 1.0000 -0.0000
vt 0.844329 0.501126
vt 0.843353 0.686753
vt 0.788150 0.686753
vt 0.789127 0.501126
vt 0.732948 0.686753
vt 0.732459 0.501615
vt 0.677745 0.686753
vt 0.677257 0.501615
vt 0.622543 0.686753
vt 0.623519 0.501126
vt 0.781174 0.687333
vt 0.781065 0.749903
vt 0.734195 0.749806
vt 0.734303 0.687333
vt 0.734110 0.687528
vt 0.733917 0.749513
vt 0.687674 0.749428
vt 0.687767 0.687528
s 0
usemtl Skin.001
f 41/93/31 42/94/31 44/95/31 43/96/31
f 43/96/32 44/95/32 48/97/32 47/98/32
f 47/98/33 48/97/33 46/99/33 45/100/33
f 45/100/34 46/99/34 42/101/34 41/102/34
f 43/103/35 47/104/35 45/105/35 41/106/35
f 48/107/36 44/108/36 42/109/36 46/110/36
o R_Leg.001
v -2.000000 -12.000000 0.000000
v -2.000000 0.000000 0.000000
v -2.000000 -12.000000 -4.000000
v -2.000000 0.000000 -4.000000
v 2.000000 -12.000000 0.000000
v 2.000000 0.000000 0.000000
v 2.000000 -12.000000 -4.000000
v 2.000000 0.000000 -4.000000
vn -1.0000 -0.0000 -0.0000
vn -0.0000 -0.0000 -1.0000
vn 1.0000 -0.0000 -0.0000
vn -0.0000 -0.0000 1.0000
vn -0.0000 -1.0000 -0.0000
vn -0.0000 1.0000 -0.0000
vt 0.250736 0.499741
vt 0.250736 0.687414
vt 0.188179 0.687414
vt 0.188179 0.499741
vt 0.125621 0.687414
vt 0.125621 0.499741
vt 0.063064 0.687414
vt 0.063064 0.499741
vt 0.000507 0.687414
vt 0.000506 0.499741
vt 0.125914 0.751164
vt 0.125914 0.688607
vt 0.188472 0.688607
vt 0.188472 0.751164
vt 0.125621 0.749971
vt 0.063064 0.749971
s 0
usemtl Skin
f 49/111/37 50/112/37 52/113/37 51/114/37
f 51/114/38 52/113/38 56/115/38 55/116/38
f 55/116/39 56/115/39 54/117/39 53/118/39
f 53/118/40 54/117/40 50/119/40 49/120/40
f 51/121/41 55/122/41 53/123/41 49/124/41
f 56/115/42 52/125/42 50/126/42 54/117/42
