# Blender 4.2.3 LTS
# www.blender.org
mtllib grass.mtl
o Cube
v -0.500000 -0.500000 -0.500000
v -0.500000 0.500000 -0.500000
v -0.500000 -0.500000 0.500000
v -0.500000 0.500000 0.500000
v 0.500000 -0.500000 -0.500000
v 0.500000 0.500000 -0.500000
v 0.500000 -0.500000 0.500000
v 0.500000 0.500000 0.500000
vn -0.0000 -1.0000 -0.0000
vn -0.0000 -0.0000 1.0000
vn 1.0000 -0.0000 -0.0000
vn -0.0000 1.0000 -0.0000
vn -1.0000 -0.0000 -0.0000
vn -0.0000 -0.0000 -1.0000
vt 0.506310 0.327408
vt 0.505752 -0.004649
vt 0.748338 -0.003019
vt 0.748897 0.329037
vt 0.749455 0.661093
vt 0.998072 0.328478
vt 0.998631 0.660534
vt 0.003575 0.664957
vt 0.003016 0.332901
vt 0.252192 0.332343
vt 0.252751 0.664399
vt 0.507428 0.991520
vt 0.506869 0.659464
vt 0.750014 0.993149
s 0
usemtl Material
f 1/1/1 5/2/1 7/3/1 3/4/1
f 4/5/2 3/4/2 7/6/2 8/7/2
f 8/8/3 7/9/3 5/10/3 6/11/3
f 6/12/4 2/13/4 4/5/4 8/14/4
f 2/13/5 1/1/5 3/4/5 4/5/5
f 6/11/6 5/10/6 1/1/6 2/13/6
