# Blender 4.2.3 LTS
# www.blender.org
mtllib mob.mtl
o Cube
v 0.500000 0.500000 -0.500000
v 0.500000 -0.500000 -0.500000
v 0.500000 0.500000 0.500000
v 0.500000 -0.500000 0.500000
v -0.500000 0.500000 -0.500000
v -0.500000 -0.500000 -0.500000
v -0.500000 0.500000 0.500000
v -0.500000 -0.500000 0.500000
vn -0.0000 1.0000 -0.0000
vn -0.0000 -0.0000 1.0000
vn -1.0000 -0.0000 -0.0000
vn -0.0000 -1.0000 -0.0000
vn 1.0000 -0.0000 -0.0000
vn -0.0000 -0.0000 -1.0000
vt 0.664792 0.498700
vt 1.001298 0.498700
vt 1.001298 0.748700
vt 0.664792 0.748700
vt 0.335208 0.748700
vt 0.664792 0.997399
vt 0.335208 0.998700
vt 0.335208 -0.001300
vt 0.664792 -0.001300
vt 0.664792 0.248700
vt 0.335208 0.248700
vt 0.002163 0.500000
vt 0.335208 0.498700
vt 0.002163 0.750000
s 0
g off
usemtl Material
f 1/1/1 5/2/1 7/3/1 3/4/1
f 4/5/2 3/4/2 7/6/2 8/7/2
f 8/8/3 7/9/3 5/10/3 6/11/3
f 6/12/4 2/13/4 4/5/4 8/14/4
f 2/13/5 1/1/5 3/4/5 4/5/5
f 6/11/6 5/10/6 1/1/6 2/13/6
